<svg id="visual" viewBox="0 0 900 450" width="900" height="450" xmlns="http://www.w3.org/2000/svg" xmlns:xlink="http://www.w3.org/1999/xlink" version="1.1"><rect x="0" y="0" width="900" height="450" fill="#1e3a8a"></rect><path d="M0 245L25 253.2C50 261.3 100 277.7 150 280.5C200 283.3 250 272.7 300 278.8C350 285 400 308 450 328C500 348 550 365 600 369.5C650 374 700 366 750 354C800 342 850 326 875 318L900 310L900 451L875 451C850 451 800 451 750 451C700 451 650 451 600 451C550 451 500 451 450 451C400 451 350 451 300 451C250 451 200 451 150 451C100 451 50 451 25 451L0 451Z" fill="#fff" stroke-linecap="round" stroke-linejoin="miter"></path></svg>