<svg id="visual" viewBox="0 0 900 450" width="900" height="450" xmlns="http://www.w3.org/2000/svg" xmlns:xlink="http://www.w3.org/1999/xlink" version="1.1"><path d="M0 353L25 338C50 323 100 293 150 293C200 293 250 323 300 342.2C350 361.3 400 369.7 450 366.7C500 363.7 550 349.3 600 346.3C650 343.3 700 351.7 750 341.3C800 331 850 302 875 287.5L900 273L900 451L875 451C850 451 800 451 750 451C700 451 650 451 600 451C550 451 500 451 450 451C400 451 350 451 300 451C250 451 200 451 150 451C100 451 50 451 25 451L0 451Z" fill="#1e3a8a" stroke-linecap="round" stroke-linejoin="miter"></path></svg>